<svg xmlns="http://www.w3.org/2000/svg" viewBox="0 0 328 335"><defs><style>.a{fill:#ee827a;}.b{fill:#fff3aa;}.b,.c,.d,.f,.g,.h,.i,.k,.l,.n,.p,.r,.t{fill-rule:evenodd;}.c,.e{fill:#ffc68d;}.d{fill:#edab6c;}.f{fill:#59bac8;}.g{fill:#100f0c;}.h,.s{fill:#1b1917;}.i{fill:#90cfd8;}.j{fill:#f19794;}.k{fill:#fff;}.l{fill:#e8e8e8;}.m{fill:#cdcacb;}.n{fill:#d5d5d5;}.o{fill:#918d8c;}.p{fill:#b0adac;}.q{fill:#dd6762;}.r{fill:#43403e;}.t{fill:#7c99b9;}</style></defs><rect class="a" x="43.13" y="265.18" width="240.61" height="35.72"/><path class="b" d="M147.31,30.09c32.32-28.8,59.47-3.38,62.3,28.42.67,7.5,4.25,11.64,4.86,19.15.38,4.68-5.23,8.82-4.29,13.43,1.27,6.21,9.31,9.74,10.29,16,1.08,6.94-6.26,13.76-4.57,20.57,1.46,5.89,11.2,7,12.86,12.86,1.7,6-5.4,12.21-4,18.29,1.52,6.65,8,11.05,12,16.57,23.62,49.15-147.07,42.58-139.17,0,1.63-6.07,4.94-11.93,4.89-18.22,0-5.45-6.5-10.21-5.17-15.5,2.41-9.61,12.65-15.91,15.43-25.43,1.67-5.74-3.46-11.76-2.86-17.71.4-4,5.23-6.6,5.72-10.58.8-6.55-2.16-13.11-2-19.71C114.2,42.52,126.94,26.22,147.31,30.09Z"/><path class="c" d="M149.32,99.33H177.9v34.86l-14.29,24.72-14.29-24.72Z"/><path class="d" d="M149.32,99.33H177.9v26.91a41.2,41.2,0,0,1-4.58.23,44.64,44.64,0,0,1-24-7Z"/><ellipse class="e" cx="163.61" cy="71.9" rx="38.54" ry="44.86"/><path class="b" d="M119,76.9c16.32-7.09,25.79-20.54,31.44-37.53,14.65,21.87,34.41,33.95,60.29,34.29q-2.43-12.43-4.85-24.86L183.61,26.22l-23.15-2-13.15,5.87-12.57,3L119,50.23l-5.43,18Z"/><path class="f" d="M147.18,139.19l-8.15.17L120,148.93a25.61,25.61,0,0,0-13.6,16.5L82.1,251.9h28.57l17.1-63.79,6,22.39c3.8,14.2.23,34.38-9.9,45l-2.38,2.5h49.76l-7.64-105.28Z"/><path class="g" d="M86.31,258l-.15-2.42.51-3.72-.07-.22,13.79-4.14L112.74,258Z"/><path class="h" d="M82.09,251.9c10-16.34,28-12.45,28.58,0C109.29,260.12,83.05,261.54,82.09,251.9Z"/><path class="i" d="M188.19,139.36l19.05,9.57a25.58,25.58,0,0,1,13.6,16.5l26,92.61H218.26l-18.81-69.93-6,22.39c-3.8,14.2-.23,34.38,9.9,45l2.38,2.5h-42l-.07-105.28L178.23,141Z"/><rect class="j" x="25.09" y="258.04" width="279.22" height="9.14"/><path class="c" d="M116.12,255.41c.48,2.32-1.17,3.1-4.42,2.69l-3.34-1.51c-1,1.82-2.39,2.2-4.53,0q-1.67,2.91-4,0c-1.69,1.92-3.38,2.15-5.07-.11-1.18,2.09-2.73,2.16-4.63.22-.22-1.9-.5-3.71-1.72-4.31s-2,.64-2.27,3.23q-1.36-5.16,3.1-9.42a10.43,10.43,0,0,1,8-3l5.83.31a10.7,10.7,0,0,1,10,8.77l.26,1.38Z"/><path class="k" d="M149.32,134.19,139,139.36l8.37,3.73-5.29,7.29,21.5,2.38Z"/><path class="l" d="M177.9,134.19l10.29,5.17-8.37,3.73,5.29,7.29-21.5,2.38Z"/><rect class="m" x="167.65" y="252.94" width="94.58" height="5.1"/><path class="n" d="M262.23,254.18H167.65v-48A11.17,11.17,0,0,1,178.79,195h72.3a11.18,11.18,0,0,1,11.14,11.14Z"/><rect class="o" x="170.43" y="255.18" width="5.79" height="1.72"/><rect class="o" x="177.86" y="255.18" width="5.79" height="1.72"/><rect class="o" x="197.22" y="255.18" width="5.79" height="1.72"/><rect class="o" x="204.65" y="255.18" width="5.79" height="1.72"/><path class="p" d="M163.43,24.2h0a41.22,41.22,0,0,1,41.11,41.11v10h-4v-10a37.17,37.17,0,0,0-37.06-37.06h0a37.18,37.18,0,0,0-37.07,37.06v10h-4v-10A41.23,41.23,0,0,1,163.43,24.2Z"/><rect class="q" x="43.13" y="267.18" width="240.61" height="3.71"/><path class="r" d="M127,85.94h-3.42a3.45,3.45,0,0,1-3.43-3.43V68a3.45,3.45,0,0,1,3.43-3.43H127Z"/><path class="g" d="M203,83.26a29.87,29.87,0,0,1-29.87,29.87v-2.7a27.16,27.16,0,0,0,27.17-27.16H203Z"/><path class="s" d="M161.41,107.64h8.23a4.14,4.14,0,0,1,4.14,4.14h0a4.15,4.15,0,0,1-4.14,4.15h-8.23a4.14,4.14,0,0,1-4.14-4.14h0A4.14,4.14,0,0,1,161.41,107.64Z"/><path class="t" d="M120.14,68H117a1.92,1.92,0,0,0-1.93,1.93V80.58A1.92,1.92,0,0,0,117,82.51h3.14Z"/><path class="r" d="M200,85.94h3.42a3.45,3.45,0,0,0,3.43-3.43V68a3.45,3.45,0,0,0-3.43-3.43H200Z"/><path class="t" d="M206.82,68H210a1.93,1.93,0,0,1,1.93,1.93V80.58A1.93,1.93,0,0,1,210,82.51h-3.14Z"/></svg>